<?xml version="1.0" standalone="no"?>
<!DOCTYPE svg PUBLIC "-//W3C//DTD SVG 20010904//EN"
 "http://www.w3.org/TR/2001/REC-SVG-20010904/DTD/svg10.dtd">
<svg version="1.0" xmlns="http://www.w3.org/2000/svg"
 width="3553.000000pt" height="3553.000000pt" viewBox="0 0 3553.000000 3553.000000"
 preserveAspectRatio="xMidYMid meet">
<metadata>
Created by potrace 1.14, written by Peter Selinger 2001-2017
</metadata>
<g transform="translate(0.000000,3553.000000) scale(0.100000,-0.100000)"
fill="#000000" stroke="none">
<path d="M8334 35509 c-28 -3 -82 -16 -120 -27 -38 -12 -150 -44 -249 -72 -99
-28 -209 -59 -245 -70 -36 -10 -312 -89 -615 -175 -302 -86 -563 -160 -580
-166 -16 -5 -172 -50 -345 -99 -1014 -286 -1379 -394 -1424 -418 -67 -36 -167
-135 -199 -198 -21 -41 -106 -309 -185 -584 -6 -19 -36 -118 -67 -220 -31
-102 -60 -198 -65 -215 -7 -29 -236 -793 -265 -885 -60 -195 -321 -1067 -332
-1115 -10 -39 -13 -86 -10 -135 6 -82 14 -107 197 -615 62 -170 133 -371 160
-445 26 -74 68 -191 93 -260 25 -69 100 -278 167 -465 66 -187 125 -349 130
-360 5 -11 36 -99 70 -195 34 -96 100 -281 147 -410 90 -248 264 -733 308
-860 15 -41 30 -84 35 -95 5 -11 56 -153 114 -315 57 -162 139 -392 182 -510
43 -118 77 -223 76 -233 0 -9 -41 -142 -91 -295 -49 -152 -149 -461 -221 -687
-72 -225 -142 -441 -155 -480 -13 -38 -58 -178 -100 -310 -42 -132 -83 -258
-90 -280 -8 -22 -32 -97 -54 -166 -22 -69 -126 -393 -231 -720 -105 -327 -209
-648 -230 -714 -51 -158 -219 -681 -280 -870 -27 -82 -65 -202 -85 -265 -20
-63 -45 -140 -55 -170 -10 -30 -60 -183 -110 -340 -50 -157 -115 -359 -145
-450 -29 -91 -90 -280 -135 -420 -45 -140 -104 -322 -130 -405 -27 -82 -63
-195 -80 -250 -18 -55 -40 -125 -50 -155 -23 -69 -105 -320 -164 -505 -24 -77
-68 -212 -96 -300 -28 -88 -72 -223 -97 -300 -46 -145 -166 -518 -330 -1025
-52 -162 -135 -421 -185 -575 -49 -154 -124 -383 -165 -510 -81 -249 -95 -335
-75 -432 9 -40 204 -531 277 -698 8 -16 28 -66 45 -110 18 -44 38 -93 45 -110
7 -16 28 -66 45 -110 17 -44 37 -93 45 -110 7 -16 26 -64 43 -105 17 -41 54
-131 83 -200 28 -69 64 -156 79 -195 23 -59 203 -499 229 -560 5 -11 19 -45
31 -75 12 -30 26 -64 31 -75 22 -55 73 -179 196 -480 74 -181 141 -343 148
-360 7 -16 22 -53 33 -81 48 -116 93 -228 156 -384 37 -91 73 -178 81 -195 7
-16 43 -104 79 -195 37 -91 71 -174 76 -185 5 -11 42 -99 81 -195 180 -441
264 -647 509 -1245 144 -352 271 -662 282 -690 11 -27 26 -63 33 -80 7 -16 34
-82 59 -145 26 -63 51 -124 56 -135 5 -11 41 -99 80 -195 39 -96 82 -200 95
-231 14 -31 25 -59 25 -63 0 -3 8 -25 19 -49 41 -94 68 -159 232 -562 94 -231
177 -433 184 -450 24 -58 75 -182 155 -380 45 -110 85 -209 89 -220 5 -11 16
-36 24 -55 8 -19 85 -206 170 -415 156 -381 169 -415 192 -470 7 -16 43 -104
80 -195 73 -179 131 -320 194 -472 23 -54 41 -101 41 -104 0 -3 7 -20 15 -37
16 -37 105 -252 370 -902 103 -253 193 -474 200 -490 8 -17 28 -66 46 -110 17
-44 39 -98 49 -120 16 -38 77 -188 122 -300 32 -80 66 -133 122 -189 61 -60
127 -98 222 -127 38 -11 193 -60 344 -109 397 -128 805 -259 880 -282 36 -12
117 -38 180 -58 119 -40 517 -166 630 -201 36 -11 74 -24 85 -29 11 -5 36 -13
55 -19 19 -5 240 -75 490 -156 250 -81 489 -157 530 -170 96 -30 341 -109 400
-128 25 -9 160 -52 300 -97 140 -45 309 -99 375 -120 66 -21 138 -44 160 -51
22 -7 42 -14 45 -14 3 -1 57 -18 120 -39 186 -61 400 -129 640 -206 300 -96
516 -165 623 -201 49 -16 123 -37 165 -45 42 -9 93 -19 112 -24 46 -10 659
-150 685 -156 11 -2 31 -6 45 -9 14 -2 174 -38 355 -80 182 -41 341 -77 355
-80 14 -3 115 -25 225 -50 110 -25 209 -47 220 -49 11 -3 52 -12 90 -21 39 -9
81 -19 95 -21 14 -3 50 -11 80 -19 30 -7 73 -16 95 -21 22 -4 45 -8 50 -10 98
-23 147 -34 166 -38 13 -2 62 -13 109 -25 47 -11 97 -22 110 -25 36 -6 113
-24 210 -48 47 -11 99 -22 115 -25 17 -2 55 -11 85 -18 51 -13 416 -96 595
-135 44 -10 163 -37 265 -60 252 -57 266 -57 475 0 44 12 87 23 95 25 51 12
108 24 130 29 21 4 78 16 140 31 8 2 58 13 110 25 52 12 104 24 115 26 11 3
31 7 45 10 14 3 54 12 90 20 36 9 74 17 85 20 11 2 142 31 290 65 149 33 279
62 290 65 11 2 130 29 265 59 291 66 582 132 665 150 33 7 193 43 355 80 162
37 313 71 335 76 22 4 81 17 130 29 50 12 101 24 115 26 14 3 156 35 315 71
160 35 297 66 305 68 8 2 44 10 80 19 36 8 81 18 100 21 59 10 108 24 315 92
110 35 207 66 215 68 8 2 56 17 105 33 50 17 196 64 325 105 129 42 348 111
485 156 138 44 412 132 610 196 198 64 367 118 375 120 8 2 56 17 105 33 50
16 196 64 325 105 672 216 772 248 850 272 47 15 92 29 100 33 8 3 17 6 20 7
3 0 21 6 40 12 19 6 143 46 275 88 132 42 265 85 295 95 30 10 150 48 265 85
116 36 221 70 235 75 25 9 461 149 595 191 39 12 131 42 205 66 74 24 143 46
153 48 9 2 22 7 27 10 5 3 18 8 27 10 64 13 209 69 255 99 65 41 135 116 166
177 12 24 101 238 197 474 97 237 180 439 185 450 5 11 39 93 75 183 92 228
134 332 150 367 7 17 72 176 145 355 73 179 141 344 151 367 10 23 19 45 19
49 0 6 37 96 65 159 8 17 48 116 90 220 42 105 83 204 90 220 14 30 23 54 160
390 42 105 99 244 127 310 27 66 63 154 80 195 17 41 37 91 45 110 8 19 18 44
23 55 4 11 22 56 40 100 18 44 38 94 45 110 8 17 49 118 93 225 43 107 114
281 157 385 42 105 83 204 90 220 7 17 43 104 80 195 37 91 73 179 80 195 12
27 265 647 407 995 32 80 67 165 78 190 17 40 228 555 476 1165 47 116 92 224
99 240 7 17 59 143 115 280 208 510 241 590 250 610 5 11 107 259 226 550 118
292 226 555 239 585 13 30 67 163 120 295 54 132 105 258 115 280 17 40 44
107 200 490 45 110 88 214 95 230 6 17 18 43 24 59 7 17 113 275 236 575 123
300 237 579 254 618 27 66 37 107 45 185 5 49 -13 145 -43 235 -16 48 -64 196
-106 328 -42 132 -101 314 -130 405 -30 91 -95 293 -145 450 -50 157 -111 346
-135 420 -24 74 -66 205 -94 290 -27 85 -95 295 -150 465 -55 171 -141 438
-191 595 -51 157 -136 422 -190 590 -54 168 -140 433 -190 590 -50 157 -132
411 -182 565 -49 154 -98 305 -108 335 -10 30 -55 170 -100 310 -45 140 -126
392 -180 560 -54 168 -140 433 -190 590 -50 157 -134 416 -185 575 -210 651
-496 1541 -665 2065 -105 328 -183 568 -203 630 -65 195 -168 521 -172 545 -4
20 3 53 20 100 15 39 40 106 55 150 15 44 46 130 68 190 22 61 73 205 115 320
41 116 127 354 190 530 303 843 588 1636 792 2205 34 96 94 263 133 370 238
659 294 821 300 870 11 82 -2 170 -48 320 -23 74 -86 284 -140 465 -54 182
-122 407 -150 500 -62 204 -45 146 -241 805 -201 673 -218 729 -229 760 -5 14
-25 81 -45 150 -19 69 -47 149 -61 178 -36 74 -131 172 -202 210 -42 22 -453
144 -1428 422 -753 215 -1391 398 -1419 405 -27 8 -121 34 -207 59 -86 25
-181 53 -210 61 -29 7 -109 30 -177 50 -184 52 -309 47 -436 -17 -68 -35 -110
-74 -257 -241 -78 -89 -145 -164 -148 -167 -4 -4 -71 -79 -196 -220 -17 -19
-73 -82 -124 -140 -51 -58 -109 -123 -129 -145 -20 -22 -65 -74 -101 -115 -36
-41 -70 -79 -76 -85 -5 -5 -44 -48 -85 -95 -40 -47 -78 -90 -84 -96 -5 -6 -37
-42 -71 -80 -125 -141 -329 -371 -391 -440 -35 -40 -72 -81 -81 -92 -79 -90
-129 -147 -137 -156 -22 -24 -289 -325 -322 -362 -10 -12 -96 -110 -192 -218
l-175 -196 -1695 0 c-933 0 -3887 -2 -6566 -5 l-4870 -6 -185 211 c-102 116
-198 225 -213 243 -34 38 -138 156 -152 171 -5 6 -44 50 -85 96 -118 133 -132
149 -222 250 -46 52 -97 110 -114 129 -16 19 -34 39 -39 45 -6 6 -66 74 -135
151 -147 167 -251 284 -265 299 -5 6 -57 65 -115 131 -58 66 -110 125 -116
130 -6 6 -80 89 -165 185 -84 96 -156 177 -159 180 -3 3 -43 48 -89 100 -94
107 -195 220 -229 258 -12 14 -44 50 -70 81 -74 87 -137 146 -184 174 -95 55
-218 81 -324 66z m19521 -1218 c292 -83 544 -155 560 -160 17 -5 334 -96 705
-202 371 -105 749 -213 839 -239 l165 -47 39 -129 c43 -145 76 -255 137 -459
22 -77 56 -189 75 -250 18 -60 46 -150 60 -200 15 -49 42 -139 60 -200 56
-182 126 -418 137 -455 5 -19 32 -109 60 -200 27 -91 77 -256 110 -368 l59
-202 -155 -433 c-184 -514 -460 -1284 -521 -1452 -24 -66 -116 -322 -204 -570
-89 -247 -170 -472 -180 -500 -11 -27 -83 -228 -161 -445 -77 -217 -143 -401
-145 -408 -3 -8 -23 7 -52 40 -26 29 -52 58 -57 64 -6 6 -38 41 -70 78 -33 37
-71 80 -85 96 -27 29 -60 66 -292 325 -73 83 -138 155 -144 161 -5 6 -37 41
-70 79 -65 74 -136 153 -175 195 -14 15 -50 55 -80 90 -30 35 -60 68 -66 74
-5 6 -109 121 -229 256 -120 135 -224 250 -229 256 -6 6 -24 26 -41 45 -97
110 -361 407 -374 420 -9 9 -43 47 -76 84 -33 37 -65 73 -70 79 -6 6 -64 72
-130 146 -66 74 -127 142 -135 150 -8 8 -53 58 -99 110 -89 100 -156 175 -317
355 -54 61 -128 144 -164 184 -63 71 -105 118 -220 246 -30 34 -71 79 -90 101
-19 21 -73 82 -120 134 -98 109 -85 94 -175 196 -99 111 -257 287 -270 300 -5
6 -37 42 -70 79 -33 38 -71 80 -83 94 -13 14 -49 55 -80 90 -50 57 -108 120
-179 199 -13 14 -23 26 -23 27 0 1 12 15 26 31 72 79 105 116 169 189 38 44
76 87 85 96 8 9 40 45 71 80 102 117 401 453 438 494 20 22 156 175 301 340
145 165 281 318 301 340 20 22 130 146 245 275 114 129 212 240 218 246 6 6
36 40 66 75 111 128 143 159 159 155 9 -3 255 -73 546 -155z m-19600 127 c19
-23 143 -163 201 -228 17 -19 69 -78 115 -130 46 -52 98 -111 115 -130 17 -19
107 -120 199 -225 93 -104 198 -224 235 -265 37 -41 91 -102 120 -135 29 -33
83 -94 120 -135 37 -41 124 -140 195 -220 70 -80 142 -161 159 -180 17 -19
101 -114 186 -210 85 -96 159 -180 165 -186 122 -134 215 -242 215 -248 0 -4
-6 -13 -12 -20 -7 -7 -28 -31 -47 -52 -19 -21 -69 -77 -111 -124 -42 -47 -92
-102 -111 -124 -19 -21 -45 -51 -59 -66 -45 -50 -94 -104 -170 -190 -82 -93
-99 -111 -251 -280 -57 -64 -122 -136 -144 -161 -104 -118 -172 -194 -190
-214 -11 -11 -51 -56 -90 -100 -38 -44 -77 -86 -85 -95 -8 -9 -46 -52 -85 -95
-38 -43 -81 -90 -94 -104 -13 -14 -49 -55 -80 -90 -31 -36 -63 -72 -71 -81 -8
-8 -69 -76 -135 -150 -110 -124 -166 -187 -205 -229 -16 -18 -324 -362 -353
-395 -10 -12 -30 -34 -45 -51 -15 -16 -65 -73 -111 -125 -47 -52 -99 -111
-117 -130 -17 -19 -42 -47 -55 -61 -13 -15 -40 -44 -59 -65 -19 -22 -87 -97
-150 -169 -63 -71 -124 -139 -135 -150 -11 -12 -45 -49 -75 -84 -30 -35 -64
-73 -75 -85 -11 -12 -54 -60 -95 -106 -41 -46 -82 -91 -90 -100 -8 -9 -44 -50
-80 -91 -36 -41 -70 -78 -76 -84 -6 -5 -66 -73 -135 -150 -126 -143 -151 -171
-255 -286 -32 -36 -73 -81 -89 -100 -36 -40 -102 -114 -205 -228 -41 -46 -81
-93 -89 -103 -7 -11 -17 -16 -21 -11 -5 4 -29 64 -53 133 -25 69 -78 215 -117
325 -40 110 -94 261 -120 335 -27 74 -87 243 -135 375 -48 132 -108 301 -135
375 -26 74 -103 288 -170 475 -68 187 -129 358 -137 380 -35 98 -234 653 -362
1008 l-139 389 33 111 c42 144 213 712 322 1072 46 154 99 332 118 395 104
348 266 885 268 886 1 0 189 54 417 118 228 65 460 131 515 147 131 38 1379
395 1470 419 39 11 147 42 240 69 94 27 175 50 180 50 6 1 19 -9 30 -21z
m14240 -2849 c-49 -28 -119 -67 -155 -86 -36 -20 -69 -39 -75 -43 -5 -4 -35
-21 -65 -37 -30 -16 -192 -108 -360 -203 -168 -95 -323 -183 -345 -195 -57
-31 -130 -72 -205 -115 -36 -20 -85 -48 -110 -62 -25 -14 -187 -105 -360 -203
-173 -98 -400 -227 -505 -285 -104 -59 -208 -118 -230 -130 -22 -13 -60 -34
-85 -48 -25 -14 -272 -154 -550 -310 -278 -157 -534 -302 -570 -322 -154 -86
-388 -218 -425 -240 -22 -12 -94 -53 -160 -90 -66 -37 -136 -76 -155 -87 -299
-169 -387 -217 -400 -216 -8 1 -85 42 -170 90 -85 49 -162 92 -170 96 -8 4
-22 11 -30 17 -17 11 -89 52 -176 101 -33 18 -142 79 -244 137 -102 58 -210
118 -240 135 -30 16 -64 35 -75 42 -20 12 -453 258 -535 303 -42 23 -141 79
-235 132 -22 13 -60 34 -85 48 -25 14 -126 71 -225 127 -99 56 -200 113 -225
127 -25 14 -61 34 -80 45 -125 71 -443 250 -480 271 -25 14 -87 49 -138 78
-52 30 -95 54 -96 54 -2 0 -43 23 -92 51 -49 29 -107 62 -129 74 -59 32 -334
187 -545 307 -102 58 -207 117 -235 133 -27 15 -102 57 -165 93 -63 36 -140
79 -170 96 -31 17 -104 58 -163 91 l-107 60 2462 5 c1355 3 3527 6 4828 8
l2365 2 -90 -51z m2083 -218 c78 -88 147 -165 154 -173 10 -10 188 -209 268
-298 8 -10 44 -50 80 -90 36 -40 73 -82 83 -94 10 -12 49 -55 86 -96 37 -41
168 -187 291 -325 123 -137 239 -268 259 -290 20 -22 77 -85 126 -140 50 -56
124 -139 165 -185 41 -45 82 -91 90 -100 35 -39 146 -164 155 -174 6 -6 64
-72 130 -146 66 -74 131 -146 145 -160 14 -14 36 -39 48 -55 13 -17 45 -53 70
-81 59 -64 142 -156 372 -414 101 -113 204 -228 229 -255 25 -28 78 -86 116
-130 70 -79 104 -117 245 -274 41 -46 80 -89 85 -95 6 -6 30 -34 55 -61 25
-28 74 -83 110 -124 36 -40 76 -86 90 -101 14 -15 54 -60 90 -100 36 -40 70
-78 75 -84 6 -6 50 -56 99 -111 49 -55 121 -135 160 -178 38 -43 77 -87 86
-96 39 -46 147 -167 165 -186 25 -26 153 -170 186 -209 13 -15 40 -45 59 -65
19 -20 70 -77 113 -125 77 -87 78 -89 73 -132 -3 -24 -8 -65 -12 -91 -6 -52
-23 -190 -29 -238 -3 -16 -7 -50 -9 -75 -3 -25 -7 -61 -10 -80 -3 -19 -8 -57
-11 -85 -3 -27 -10 -79 -15 -115 -5 -36 -11 -90 -15 -120 -3 -30 -8 -66 -10
-80 -2 -14 -7 -50 -10 -80 -3 -30 -8 -66 -10 -80 -4 -24 -9 -63 -21 -165 -3
-27 -7 -61 -9 -75 -2 -14 -7 -50 -10 -80 -3 -30 -8 -66 -10 -80 -2 -14 -7 -50
-10 -80 -3 -30 -8 -66 -10 -80 -4 -24 -9 -62 -20 -155 -3 -22 -7 -56 -10 -75
-2 -19 -7 -57 -10 -85 -3 -27 -8 -61 -10 -75 -2 -14 -7 -47 -10 -75 -6 -57
-23 -190 -31 -250 -3 -22 -7 -56 -9 -75 -2 -19 -6 -55 -9 -80 -4 -25 -9 -62
-11 -82 -12 -91 -17 -132 -31 -238 -3 -25 -7 -61 -9 -80 -2 -19 -6 -53 -9 -75
-5 -41 -13 -101 -22 -170 -2 -22 -7 -51 -9 -65 -2 -14 -7 -54 -11 -90 -3 -36
-7 -72 -9 -80 -1 -8 -6 -40 -9 -70 -12 -91 -15 -116 -46 -365 -17 -132 -33
-258 -35 -280 -3 -22 -7 -56 -10 -75 -2 -19 -7 -55 -10 -80 -3 -25 -7 -61 -10
-80 -3 -19 -7 -55 -10 -80 -3 -25 -8 -61 -10 -80 -3 -19 -7 -55 -10 -80 -5
-42 -12 -98 -20 -160 -2 -14 -7 -52 -11 -85 -3 -33 -8 -68 -10 -79 -2 -10 -6
-44 -9 -75 -4 -31 -8 -67 -10 -81 -12 -84 -15 -110 -20 -155 -6 -54 -24 -195
-30 -235 -7 -46 -20 -155 -30 -255 -3 -27 -8 -61 -10 -75 -4 -23 -7 -48 -20
-147 -12 -98 -16 -131 -20 -163 -3 -19 -7 -55 -10 -80 -3 -25 -8 -61 -10 -80
-3 -19 -7 -55 -10 -80 -3 -25 -7 -62 -10 -82 -3 -21 -7 -55 -10 -75 -10 -86
-26 -210 -30 -243 -3 -19 -7 -56 -10 -83 -3 -26 -7 -60 -9 -75 -3 -15 -8 -52
-11 -82 -3 -30 -8 -62 -10 -70 -2 -8 -6 -46 -10 -83 -3 -37 -8 -78 -11 -90 -2
-12 -6 -42 -9 -67 -13 -110 -26 -217 -30 -240 -2 -14 -7 -50 -10 -80 -4 -30
-11 -86 -16 -125 -5 -38 -12 -92 -15 -120 -2 -27 -6 -61 -9 -75 -2 -14 -6 -47
-10 -75 -3 -27 -8 -66 -10 -85 -2 -19 -7 -60 -10 -90 -3 -30 -8 -66 -10 -80
-2 -14 -7 -45 -10 -70 -3 -25 -8 -63 -12 -85 -3 -22 -6 -51 -8 -65 -7 -69 -17
-157 -20 -170 -2 -8 -6 -44 -10 -80 -4 -36 -8 -67 -10 -70 -1 -3 -6 -36 -9
-75 -4 -38 -9 -81 -11 -95 -3 -14 -7 -45 -10 -70 -12 -102 -16 -137 -21 -170
-7 -48 -24 -185 -29 -240 -3 -25 -8 -61 -11 -80 -3 -19 -7 -49 -9 -66 -4 -39
-15 -130 -20 -164 -3 -14 -7 -50 -10 -80 -3 -30 -7 -64 -9 -75 -2 -11 -7 -49
-11 -85 -4 -36 -8 -72 -10 -80 -1 -8 -6 -42 -9 -75 -4 -33 -9 -67 -11 -75 -2
-8 -6 -46 -10 -83 -3 -37 -8 -76 -10 -85 -1 -9 -6 -46 -10 -82 -4 -36 -8 -67
-10 -70 -1 -3 -6 -34 -9 -70 -4 -36 -9 -80 -11 -98 -2 -18 -9 -67 -14 -110 -5
-42 -13 -99 -16 -127 -3 -27 -8 -61 -10 -75 -2 -14 -6 -52 -10 -85 -4 -32 -8
-66 -10 -75 -1 -8 -6 -42 -9 -75 -4 -33 -9 -73 -11 -90 -4 -27 -18 -137 -31
-240 -2 -22 -7 -51 -9 -65 -2 -14 -7 -52 -10 -85 -3 -33 -8 -67 -10 -75 -2 -8
-6 -46 -10 -85 -3 -38 -8 -77 -10 -85 -2 -8 -6 -42 -10 -75 -3 -33 -8 -71 -10
-85 -2 -14 -6 -47 -10 -75 -4 -27 -8 -63 -11 -80 -2 -16 -6 -55 -9 -85 -4 -30
-10 -82 -15 -115 -5 -33 -12 -87 -16 -119 -3 -33 -7 -67 -9 -77 -2 -10 -7 -49
-10 -86 -4 -37 -8 -75 -10 -83 -2 -8 -7 -42 -10 -75 -7 -65 -14 -97 -24 -105
-3 -3 -42 -45 -85 -95 -44 -49 -85 -95 -90 -100 -6 -6 -47 -51 -91 -100 -44
-50 -84 -95 -90 -101 -5 -6 -37 -42 -70 -79 -33 -38 -67 -76 -75 -84 -9 -9
-49 -54 -90 -101 -41 -47 -79 -90 -85 -96 -5 -6 -44 -48 -85 -94 -41 -46 -86
-95 -99 -109 -13 -14 -49 -55 -80 -90 -31 -35 -61 -69 -66 -75 -6 -6 -51 -56
-100 -111 -49 -55 -94 -105 -100 -111 -6 -6 -35 -39 -65 -74 -30 -35 -62 -70
-70 -79 -9 -9 -52 -56 -95 -106 -44 -49 -101 -112 -126 -140 -25 -27 -84 -93
-130 -145 -46 -52 -88 -100 -94 -106 -5 -6 -44 -48 -85 -94 -41 -46 -86 -96
-100 -111 -14 -15 -36 -40 -49 -56 -20 -23 -253 -283 -286 -319 -5 -6 -37 -42
-70 -79 -33 -38 -73 -83 -90 -101 -29 -31 -142 -157 -178 -198 -29 -33 -192
-216 -252 -282 -5 -6 -41 -46 -80 -89 -69 -78 -169 -189 -190 -211 -5 -6 -23
-27 -40 -45 -43 -50 -184 -207 -226 -254 -20 -22 -157 -175 -304 -340 -147
-165 -284 -318 -304 -340 -20 -22 -74 -83 -121 -135 -143 -160 -153 -170 -160
-170 -4 0 -17 62 -29 138 -12 76 -23 148 -25 159 -3 11 -7 38 -10 59 -3 22 -8
50 -11 64 -3 14 -7 41 -10 60 -2 19 -6 44 -8 55 -3 11 -8 42 -11 68 -4 27 -9
59 -12 70 -2 12 -6 38 -9 57 -3 19 -7 46 -9 60 -3 14 -8 43 -11 65 -3 22 -16
105 -30 185 -13 80 -26 159 -28 175 -5 30 -8 49 -52 323 -27 166 -73 442 -79
482 -5 27 -13 76 -21 137 -3 21 -8 49 -11 63 -2 14 -6 34 -8 45 -2 11 -9 56
-16 100 -7 44 -14 89 -16 100 -2 10 -6 37 -9 60 -4 22 -13 79 -21 126 -8 48
-16 99 -19 115 -4 35 -13 90 -21 126 -3 15 -7 39 -9 55 -3 26 -31 198 -40 253
-2 14 -7 43 -10 65 -4 22 -15 90 -25 150 -10 61 -21 128 -25 150 -3 22 -10 67
-16 100 -6 33 -13 76 -15 95 -3 19 -16 100 -29 180 -13 80 -27 162 -30 183 -3
20 -7 53 -10 73 -3 20 -7 39 -9 43 -2 3 -6 29 -10 56 -3 28 -8 61 -10 75 -4
23 -41 247 -52 315 -7 46 -12 74 -24 145 -13 75 -15 87 -25 155 -4 28 -9 59
-11 70 -2 11 -7 40 -10 65 -3 25 -8 53 -10 63 -3 10 -7 30 -9 45 -3 26 -21
138 -30 192 -2 14 -13 81 -25 150 -11 69 -22 134 -24 145 -2 11 -7 42 -10 69
-4 27 -15 99 -26 160 -10 61 -21 132 -25 158 -3 26 -7 53 -10 60 -2 7 -7 31
-10 53 -3 22 -15 94 -26 160 -11 66 -21 134 -24 150 -2 17 -6 45 -9 63 -3 17
-8 47 -11 65 -3 17 -7 43 -10 57 -2 14 -7 43 -10 65 -3 22 -23 146 -45 275
-21 129 -42 258 -45 285 -4 28 -8 57 -10 65 -3 8 -7 33 -10 55 -4 22 -20 121
-36 219 -16 99 -31 194 -33 210 -2 17 -7 42 -10 56 -3 14 -8 41 -11 60 -16
109 -25 167 -29 185 -2 11 -9 56 -16 100 -7 44 -14 87 -15 96 -2 9 -6 34 -9
55 -4 22 -16 95 -27 164 -11 69 -22 139 -25 155 -2 17 -9 55 -14 85 -6 30 -24
141 -40 245 -16 105 -32 199 -34 210 -2 11 -9 58 -16 105 -40 269 -70 319
-310 517 -52 42 -97 80 -100 83 -5 5 -216 182 -269 225 -14 11 -41 34 -60 51
-20 17 -164 138 -321 269 -309 259 -314 264 -308 270 2 2 89 59 193 126 105
66 213 136 241 155 28 18 223 144 433 278 l382 245 97 -62 c54 -34 231 -147
394 -252 371 -237 408 -259 488 -289 96 -37 186 -52 296 -50 187 3 283 40 564
219 102 65 197 125 212 134 15 9 94 58 175 109 81 51 227 142 323 202 96 60
180 113 185 117 6 5 86 56 178 113 92 58 202 127 245 153 42 27 90 61 105 75
115 109 117 305 5 411 -18 17 -235 157 -483 312 -247 154 -466 291 -485 303
-19 13 -78 49 -130 82 -52 32 -138 85 -190 119 -152 98 -253 140 -400 167 -99
19 -274 16 -375 -7 -155 -34 -195 -55 -705 -361 -146 -87 -272 -162 -280 -166
-8 -4 -112 -66 -230 -137 -183 -110 -443 -266 -605 -361 -23 -14 -106 -63
-184 -110 -78 -47 -154 -92 -169 -101 -175 -103 -563 -335 -584 -350 -15 -10
-29 -19 -32 -19 -2 0 -124 -72 -271 -160 -147 -88 -273 -160 -280 -160 -8 0
-15 3 -17 8 -1 4 -30 30 -63 57 -33 28 -62 52 -65 55 -3 3 -72 61 -155 130
-82 69 -161 135 -175 146 -27 23 -112 95 -145 123 -18 15 -288 241 -449 377
l-61 51 0 3576 0 3577 105 58 c133 74 171 96 355 200 83 47 170 96 195 110 25
14 95 53 155 87 61 35 133 75 160 90 28 16 66 37 85 48 19 11 55 31 80 45 25
13 50 28 55 32 6 4 37 22 70 40 60 32 235 131 355 200 62 36 103 59 208 116
26 15 61 34 77 44 17 10 50 29 75 43 25 13 151 84 280 157 129 73 260 146 290
163 30 17 71 41 90 54 19 12 37 23 41 23 3 0 46 23 95 51 49 28 127 73 174 99
47 26 171 96 275 155 105 59 210 119 235 133 25 14 111 62 191 107 80 46 201
114 270 153 123 69 163 92 237 133 20 12 84 48 142 81 58 32 112 63 120 68 8
5 83 47 165 93 83 47 168 95 190 107 22 13 81 45 130 72 50 28 95 54 100 58 6
4 35 21 65 37 58 31 377 211 565 318 61 35 128 73 150 85 73 40 309 173 350
197 22 12 43 23 46 23 3 0 70 -72 147 -159z m-13350 65 c81 -45 172 -97 202
-113 30 -17 115 -65 189 -107 73 -42 135 -76 137 -76 1 0 35 -19 76 -43 40
-24 80 -46 88 -50 8 -4 22 -11 30 -17 8 -6 96 -56 195 -111 99 -56 196 -110
215 -121 37 -22 332 -187 440 -248 36 -20 83 -47 105 -59 130 -75 660 -374
710 -401 22 -12 56 -30 75 -42 19 -11 127 -72 240 -136 113 -63 219 -123 235
-132 320 -181 995 -562 1085 -612 65 -37 428 -241 475 -268 22 -13 60 -34 85
-48 25 -13 50 -28 55 -32 6 -4 35 -21 65 -37 30 -17 109 -61 175 -98 66 -37
140 -79 165 -93 87 -49 411 -232 682 -386 65 -36 122 -66 128 -66 5 0 10 -3
10 -7 0 -5 28 -21 61 -38 34 -16 71 -39 83 -50 l21 -20 0 -3566 0 -3565 -35
-31 c-35 -30 -201 -170 -295 -248 -27 -22 -53 -45 -59 -50 -6 -6 -121 -103
-256 -215 -281 -235 -254 -212 -387 -325 l-102 -86 -38 25 c-21 13 -252 151
-513 306 -261 156 -567 338 -680 405 -113 68 -358 214 -545 325 -187 112 -430
257 -540 323 -110 66 -209 125 -220 131 -11 6 -143 85 -293 175 -387 231 -479
264 -717 264 -71 0 -141 -3 -155 -6 -191 -41 -271 -76 -461 -200 -63 -41 -153
-98 -202 -128 -48 -30 -105 -65 -127 -79 -22 -14 -76 -47 -121 -75 -112 -69
-94 -58 -442 -275 -171 -107 -327 -208 -345 -224 -81 -71 -112 -203 -72 -310
32 -84 77 -123 295 -259 212 -132 367 -230 935 -587 501 -315 501 -316 590
-345 181 -60 398 -51 564 22 48 22 390 230 491 300 11 8 119 77 239 153 203
130 221 139 240 126 12 -8 86 -56 166 -107 80 -51 190 -122 245 -157 55 -36
123 -79 150 -97 28 -17 95 -61 150 -96 55 -36 135 -87 178 -115 225 -143 347
-225 346 -232 0 -4 -51 -48 -112 -99 -62 -50 -202 -167 -313 -260 -110 -92
-306 -256 -435 -365 -129 -108 -265 -223 -304 -255 -129 -109 -173 -194 -204
-400 -21 -139 -22 -144 -45 -280 -9 -50 -18 -113 -21 -139 -4 -26 -8 -50 -10
-54 -3 -5 -11 -53 -20 -115 -6 -48 -18 -120 -41 -260 -14 -82 -27 -163 -30
-180 -2 -16 -9 -55 -14 -85 -5 -30 -12 -75 -15 -100 -3 -25 -8 -52 -10 -60 -4
-13 -13 -70 -20 -125 -2 -11 -10 -65 -20 -120 -9 -55 -18 -112 -21 -127 -2
-16 -6 -40 -9 -55 -4 -26 -60 -372 -71 -438 -2 -16 -9 -55 -14 -85 -5 -30 -12
-73 -15 -95 -3 -22 -8 -51 -10 -65 -26 -159 -35 -210 -39 -240 -3 -19 -12 -75
-20 -125 -8 -49 -17 -103 -20 -120 -9 -61 -17 -111 -22 -135 -5 -28 -12 -70
-18 -115 -2 -16 -11 -70 -20 -120 -8 -49 -17 -106 -20 -125 -3 -19 -12 -74
-21 -123 -8 -48 -17 -103 -20 -122 -3 -19 -7 -51 -10 -70 -3 -19 -20 -128 -39
-242 -19 -115 -37 -228 -41 -253 -3 -25 -8 -52 -10 -60 -2 -8 -7 -35 -11 -60
-3 -25 -8 -54 -10 -65 -9 -66 -16 -106 -24 -150 -5 -27 -12 -70 -15 -95 -3
-25 -8 -52 -10 -60 -2 -8 -6 -31 -9 -50 -3 -19 -12 -78 -20 -130 -9 -52 -18
-113 -21 -135 -4 -22 -8 -47 -10 -55 -2 -8 -7 -37 -11 -65 -6 -48 -8 -59 -18
-115 -3 -14 -8 -43 -11 -65 -3 -22 -8 -51 -10 -65 -11 -67 -66 -409 -71 -440
-2 -19 -7 -46 -10 -60 -3 -14 -8 -38 -10 -55 -2 -16 -6 -40 -8 -52 -3 -11 -8
-43 -12 -70 -3 -26 -8 -57 -10 -68 -2 -11 -13 -78 -25 -150 -11 -71 -22 -139
-24 -150 -3 -11 -7 -38 -10 -60 -3 -22 -7 -47 -10 -55 -2 -8 -6 -35 -9 -60 -4
-25 -8 -56 -10 -70 -6 -34 -37 -219 -41 -250 -2 -14 -11 -65 -19 -115 -8 -49
-17 -103 -20 -120 -4 -26 -26 -165 -41 -257 -3 -16 -7 -40 -9 -55 -11 -70 -19
-119 -21 -133 -2 -8 -15 -89 -29 -180 -15 -91 -29 -177 -32 -192 -2 -16 -7
-43 -10 -60 -3 -18 -7 -44 -9 -58 -2 -14 -6 -38 -9 -55 -3 -16 -8 -50 -11 -75
-3 -25 -8 -52 -11 -61 -3 -10 -6 -30 -9 -45 -8 -59 -45 -291 -54 -340 -6 -28
-12 -71 -15 -95 -3 -24 -8 -55 -11 -69 -2 -14 -7 -36 -10 -50 -2 -14 -7 -45
-10 -70 -3 -25 -20 -126 -36 -225 -17 -99 -32 -189 -33 -200 -2 -11 -7 -40
-11 -65 l-7 -44 -20 24 c-17 22 -110 126 -187 209 -12 14 -51 57 -85 95 -33
39 -79 90 -102 115 -22 25 -81 91 -130 146 -49 55 -91 102 -94 105 -7 7 -226
252 -429 480 -96 107 -205 229 -242 270 -37 41 -76 85 -86 96 -10 12 -42 48
-71 80 -30 33 -70 77 -89 99 -20 22 -55 60 -77 85 -23 25 -95 106 -160 180
-66 74 -143 160 -170 190 -28 30 -85 93 -126 140 -41 46 -97 109 -125 140 -27
30 -81 91 -120 134 -38 44 -74 84 -80 90 -15 17 -179 199 -190 212 -5 6 -42
47 -81 90 -69 77 -198 221 -333 373 -36 41 -75 84 -86 95 -11 12 -49 55 -85
96 -36 41 -72 81 -80 90 -20 22 -146 162 -256 285 -49 55 -93 105 -99 111 -5
6 -39 44 -75 84 -36 40 -70 78 -75 84 -6 6 -44 49 -85 96 -41 47 -78 87 -81
90 -3 3 -50 55 -104 115 -54 61 -130 146 -170 190 -160 178 -141 142 -160 300
-3 22 -7 56 -10 75 -3 19 -7 53 -10 75 -17 142 -77 616 -81 645 -2 19 -7 58
-10 85 -2 28 -7 60 -10 73 -2 12 -7 47 -10 76 -2 29 -7 64 -9 77 -3 13 -7 53
-11 89 -3 36 -7 67 -9 70 -2 3 -6 41 -10 85 -4 44 -9 82 -10 85 -2 3 -6 34
-10 70 -4 36 -8 72 -10 80 -2 8 -6 44 -10 80 -4 36 -8 72 -10 80 -3 14 -11 79
-21 163 -5 46 -13 106 -19 155 -3 20 -7 57 -10 82 -3 25 -7 56 -10 70 -2 14
-7 53 -10 88 -4 35 -8 73 -10 84 -3 11 -7 46 -10 77 -4 31 -8 67 -10 81 -11
82 -15 110 -20 155 -3 28 -8 64 -10 80 -10 73 -27 203 -30 230 -9 88 -17 152
-20 165 -2 8 -7 44 -10 80 -3 36 -8 76 -10 90 -4 24 -8 53 -20 153 -3 23 -7
58 -10 77 -3 19 -7 53 -9 75 -3 22 -12 92 -20 155 -9 63 -18 135 -21 160 -3
25 -8 65 -11 90 -3 25 -7 61 -10 80 -15 134 -16 141 -28 225 -3 22 -8 59 -11
83 -3 23 -7 60 -10 82 -3 22 -7 58 -10 80 -3 22 -7 58 -10 80 -3 22 -7 58 -10
80 -3 22 -7 57 -10 78 -2 20 -7 57 -10 82 -6 49 -13 105 -20 163 -3 20 -7 54
-10 75 -9 74 -14 118 -20 157 -2 22 -7 58 -10 80 -8 71 -16 139 -20 165 -2 14
-7 52 -11 85 -3 33 -8 68 -10 79 -2 10 -6 44 -9 75 -4 31 -8 67 -10 81 -5 33
-23 182 -30 245 -3 28 -8 61 -10 75 -5 28 -7 41 -35 270 -11 91 -22 181 -25
200 -15 120 -27 211 -31 250 -2 25 -9 77 -14 115 -5 39 -12 90 -15 115 -3 25
-7 61 -10 80 -3 19 -7 55 -10 80 -3 25 -7 61 -10 80 -3 19 -7 55 -10 80 -4 25
-8 56 -10 70 -2 14 -7 52 -10 85 -3 33 -8 71 -10 85 -3 14 -7 48 -10 75 -3 28
-7 61 -9 75 -3 14 -7 52 -11 85 -4 32 -8 66 -10 75 -1 8 -6 42 -9 75 -4 33 -9
71 -11 85 -2 14 -6 52 -10 85 -4 32 -8 67 -10 77 -2 9 -6 43 -10 75 -3 32 -8
69 -10 83 -2 14 -6 45 -9 70 -10 81 -16 124 -21 170 -5 43 -9 75 -20 158 -12
96 -18 139 -20 162 -2 24 -5 51 -25 195 -5 39 -12 91 -15 117 -3 26 -7 62 -9
80 -3 18 -8 56 -11 83 -3 28 -8 64 -10 80 -3 17 -7 51 -10 77 -3 26 -7 62 -10
80 -4 30 -19 149 -30 238 -9 70 -15 126 -20 160 -3 19 -7 54 -10 78 -3 23 -7
60 -10 82 -3 22 -7 57 -10 78 -2 20 -9 75 -15 122 -6 47 -13 103 -16 125 -2
22 -7 51 -9 65 -2 14 -7 52 -10 85 -3 33 -8 74 -10 90 -4 27 -18 137 -31 240
-2 22 -7 51 -9 65 -2 14 -7 50 -10 80 -3 30 -8 66 -10 80 -3 14 -7 50 -10 80
-3 30 -7 66 -10 80 -2 14 -7 46 -10 73 -3 26 -7 68 -10 95 -3 26 -8 61 -10 77
-2 17 -7 53 -10 80 -5 45 -10 83 -20 155 -3 24 -9 72 -21 170 -3 25 -7 56 -9
70 -2 14 -7 52 -11 85 -3 33 -8 67 -9 75 -2 8 -6 47 -11 85 -4 39 -8 72 -9 75
-1 3 -5 37 -9 75 -5 39 -10 79 -12 90 -2 10 -6 49 -10 85 -3 36 -8 67 -10 69
-3 3 110 138 140 166 6 6 40 44 76 85 36 41 74 84 85 96 22 23 131 144 165
184 12 14 54 61 93 104 40 44 82 91 95 105 13 15 33 37 46 51 12 14 62 70 111
125 48 55 91 102 94 105 4 3 31 34 61 69 30 36 66 76 80 90 14 14 59 64 100
111 41 47 81 92 90 101 8 8 42 46 75 84 33 37 71 80 85 95 46 51 166 184 296
330 71 80 133 150 139 156 23 25 85 94 155 174 90 102 85 97 135 151 35 38 81
90 235 263 19 21 46 51 58 65 13 14 49 55 80 90 32 35 62 69 68 75 9 10 158
176 224 250 14 15 34 38 45 51 11 12 52 57 90 100 39 44 93 104 120 135 28 30
84 93 125 140 41 46 82 91 90 100 8 8 67 74 130 145 63 72 119 135 125 141 5
6 42 46 80 89 39 43 79 88 91 101 12 13 52 58 90 101 38 43 92 103 119 133 92
103 191 215 231 260 21 24 46 51 54 60 29 32 116 128 180 200 36 40 124 138
195 218 72 79 134 151 138 158 4 8 13 14 18 14 6 0 77 -38 157 -84z m18822
-7826 c136 -423 170 -528 220 -685 198 -612 295 -913 390 -1210 21 -66 61
-191 89 -277 103 -320 154 -476 196 -608 24 -74 50 -155 58 -180 8 -25 32 -97
52 -160 20 -63 58 -182 85 -265 61 -189 201 -624 320 -995 100 -311 237 -734
390 -1210 54 -168 157 -489 230 -715 72 -225 135 -421 140 -435 5 -14 50 -153
100 -310 51 -157 120 -373 155 -481 l63 -196 -210 -514 c-115 -283 -215 -527
-223 -544 -7 -16 -72 -176 -145 -355 -73 -179 -180 -440 -237 -580 -58 -140
-140 -340 -183 -445 -42 -104 -160 -390 -260 -635 -100 -245 -197 -481 -215
-525 -145 -356 -508 -1244 -515 -1260 -17 -38 -88 -211 -175 -425 -48 -118
-114 -280 -147 -360 -33 -80 -94 -228 -135 -330 -41 -102 -92 -225 -113 -275
-20 -49 -72 -175 -114 -280 -43 -104 -83 -203 -91 -220 -7 -16 -52 -127 -100
-245 -47 -118 -92 -228 -100 -245 -7 -16 -34 -82 -59 -145 -26 -63 -51 -124
-56 -135 -5 -11 -29 -69 -54 -130 -79 -197 -186 -460 -196 -480 -5 -11 -106
-258 -225 -550 -118 -291 -224 -550 -235 -575 -11 -25 -52 -124 -91 -220 -39
-96 -77 -188 -85 -204 -8 -16 -14 -33 -14 -37 0 -5 -11 -32 -23 -61 -13 -29
-30 -69 -37 -88 -7 -19 -19 -48 -26 -65 -39 -90 -544 -1326 -544 -1331 0 -2
-11 -28 -25 -58 -14 -30 -25 -57 -25 -60 0 -4 -9 -25 -20 -49 -10 -23 -33 -78
-50 -122 -18 -44 -40 -98 -49 -120 -10 -22 -51 -122 -91 -222 l-74 -182 -150
-49 c-83 -28 -259 -84 -391 -127 -305 -97 -366 -117 -495 -159 -58 -18 -186
-59 -285 -91 -99 -31 -198 -63 -220 -70 -22 -8 -103 -34 -180 -58 -167 -54
-607 -195 -830 -267 -88 -29 -164 -53 -170 -54 -5 -1 -53 -16 -105 -33 -52
-17 -203 -66 -335 -108 -132 -42 -265 -85 -295 -95 -30 -10 -163 -53 -295 -95
-132 -42 -269 -86 -305 -98 -36 -11 -69 -22 -75 -23 -5 -2 -156 -50 -335 -108
-179 -57 -388 -125 -465 -149 -77 -25 -147 -48 -156 -52 -14 -5 -15 0 -9 42 4
26 11 73 14 104 4 31 8 65 10 75 2 11 7 41 10 67 4 27 9 57 11 66 2 10 6 42
10 72 3 30 10 81 15 114 5 33 12 78 15 100 3 22 8 56 11 75 3 19 8 48 10 63 2
15 6 44 8 65 13 90 27 190 32 221 2 19 6 46 9 60 2 14 7 49 10 76 3 28 8 61
10 75 6 31 11 64 25 165 14 101 19 134 25 165 2 14 7 48 10 75 3 28 8 57 10
65 2 8 6 40 10 71 3 31 8 67 10 80 5 25 33 218 41 279 3 19 9 64 14 100 5 36
12 83 15 105 3 22 19 128 35 235 15 107 31 219 35 249 4 30 9 63 11 75 4 21
10 64 19 139 3 23 10 67 15 97 5 30 12 78 15 105 8 68 15 115 20 145 3 14 7
41 10 60 7 54 35 252 40 280 4 29 11 78 20 140 3 25 10 72 15 105 5 33 12 83
16 110 3 28 7 57 9 65 5 29 15 99 31 215 3 28 8 58 10 68 1 10 10 70 19 135 9
64 21 122 28 127 11 9 109 119 183 204 16 18 40 45 54 60 14 14 40 44 59 66
19 22 69 78 111 125 78 86 299 333 420 469 36 41 70 79 75 85 6 6 51 56 99
111 49 55 94 105 100 110 6 6 42 46 81 90 38 44 72 82 75 85 3 3 45 50 95 105
49 55 92 102 95 105 3 3 39 43 80 90 41 47 77 87 80 90 3 3 37 41 75 85 39 44
73 82 76 85 3 3 30 32 59 65 29 33 88 98 129 145 215 239 303 338 328 366 15
18 124 139 188 210 11 12 33 37 50 55 79 90 442 496 537 600 12 14 48 55 80
90 31 35 69 78 85 95 15 17 58 64 94 105 193 217 263 295 273 304 6 6 24 26
40 45 16 19 63 73 105 119 42 46 81 89 86 95 6 6 28 31 49 56 22 25 74 83 116
130 77 86 209 233 330 369 36 40 79 88 95 105 17 18 59 66 95 106 36 41 106
119 156 175 49 55 132 147 183 205 107 120 143 160 261 290 106 116 125 142
156 208 27 60 40 112 48 192 4 45 32 275 50 415 2 17 7 53 11 80 3 28 8 66 10
85 3 19 9 73 15 120 6 47 12 99 15 115 6 47 13 106 20 160 3 28 10 84 15 125
6 41 12 93 14 115 3 22 7 56 10 75 3 19 8 58 11 85 3 28 8 61 10 75 2 14 6 50
10 81 3 31 7 65 9 75 2 11 7 48 10 84 4 36 9 76 11 90 2 14 7 43 9 65 13 103
17 132 21 165 3 19 7 53 9 75 3 22 10 78 16 125 6 47 13 102 15 123 3 20 7 55
10 77 3 22 7 57 10 78 12 104 24 195 30 232 2 14 7 54 10 90 4 36 8 67 10 70
1 3 6 41 10 85 4 44 8 82 10 85 2 3 6 34 9 70 4 36 9 76 11 90 5 30 10 65 30
235 9 72 18 141 20 155 2 14 6 50 10 80 3 30 10 90 16 134 6 43 12 92 14 110
2 17 6 45 9 61 2 17 7 58 11 92 3 34 7 70 9 80 2 10 7 47 11 83 3 36 8 72 10
80 2 8 7 44 10 80 4 36 8 72 10 80 1 8 6 44 10 80 4 36 9 74 11 84 2 11 6 42
9 70 6 61 15 132 21 166 2 14 6 48 9 75 4 28 8 61 10 75 2 14 7 54 10 90 4 36
9 74 11 85 2 11 9 60 14 108 6 49 12 103 15 120 12 94 16 126 21 167 2 25 7
61 10 80 5 35 7 51 19 150 3 30 8 69 10 85 3 17 7 53 10 80 3 28 7 61 10 74 2
13 7 49 10 80 3 31 7 67 9 81 3 14 8 48 11 75 4 28 8 63 11 79 2 16 6 56 9 89
3 33 7 63 9 66 2 3 7 38 10 77 4 39 8 80 10 90 2 11 7 42 10 69 6 52 12 95 20
155 3 19 8 60 11 90 3 30 8 66 10 80 5 31 25 192 31 245 2 22 8 74 14 115 5
41 12 95 15 120 3 25 9 79 15 120 5 41 12 98 15 125 4 28 8 61 10 75 4 23 18
134 30 240 3 25 7 54 9 65 2 11 7 49 11 85 3 36 8 76 10 90 6 40 24 180 30
235 3 28 8 66 11 85 3 19 7 53 9 75 3 22 7 56 10 75 2 19 7 54 10 78 8 68 14
112 25 202 11 91 18 141 26 205 2 22 7 58 10 80 2 22 7 57 9 78 3 20 7 54 10
75 2 20 7 57 10 82 3 25 8 63 10 85 3 22 8 58 11 80 2 22 7 51 9 65 2 14 7 54
11 90 3 36 8 74 10 84 2 11 6 44 9 75 3 31 7 67 10 81 5 29 22 163 30 235 3
28 8 68 12 90 3 22 7 51 8 65 5 43 17 144 20 160 2 8 6 44 10 80 4 36 8 72 10
80 2 8 6 44 9 80 4 36 10 79 13 95 7 33 0 53 173 -485z m-24416 425 c3 -17 8
-55 11 -85 3 -30 8 -62 10 -70 2 -8 6 -46 10 -83 3 -37 8 -77 10 -89 3 -11 7
-46 10 -77 6 -55 8 -67 19 -146 3 -22 8 -58 10 -80 3 -22 8 -58 10 -80 3 -22
13 -98 21 -170 9 -71 18 -141 20 -155 2 -14 6 -47 10 -75 3 -27 10 -84 15
-125 5 -41 12 -97 15 -125 4 -27 8 -61 10 -75 2 -14 7 -52 10 -85 7 -60 10
-85 19 -140 3 -16 10 -75 16 -130 11 -99 13 -112 24 -190 3 -22 9 -62 12 -90
3 -27 7 -61 9 -75 2 -14 6 -47 9 -75 7 -63 17 -145 21 -165 2 -8 6 -44 10 -80
4 -36 8 -72 10 -80 2 -8 6 -44 10 -80 3 -36 8 -72 10 -80 2 -8 7 -44 10 -80 4
-36 8 -72 10 -80 2 -8 6 -44 10 -80 4 -36 8 -72 10 -80 2 -8 6 -44 10 -80 4
-36 8 -72 10 -80 2 -8 6 -44 10 -80 4 -36 8 -72 10 -80 1 -8 6 -44 10 -80 4
-36 9 -74 11 -84 2 -11 6 -46 9 -79 3 -33 7 -63 9 -66 2 -3 7 -37 11 -76 7
-70 8 -83 20 -165 3 -25 7 -61 9 -80 5 -40 25 -200 31 -245 3 -16 12 -88 20
-160 9 -71 18 -141 20 -155 2 -14 6 -47 10 -75 3 -27 10 -84 15 -125 5 -41 12
-97 15 -125 4 -27 8 -59 10 -71 2 -11 7 -52 11 -90 4 -38 8 -71 9 -74 1 -3 5
-36 9 -75 4 -38 9 -81 11 -95 9 -65 35 -260 40 -300 3 -25 7 -61 10 -80 2 -19
7 -56 10 -82 3 -26 7 -62 9 -80 3 -18 8 -55 11 -83 3 -27 8 -61 10 -75 2 -14
6 -52 10 -85 4 -32 8 -66 10 -75 1 -8 6 -42 9 -75 11 -92 14 -116 21 -170 8
-59 12 -92 20 -160 4 -27 8 -61 10 -75 2 -14 7 -47 10 -75 8 -75 16 -137 20
-165 3 -14 9 -68 15 -120 7 -52 13 -108 15 -125 2 -16 6 -50 9 -75 3 -25 8
-54 10 -65 2 -12 7 -50 10 -86 4 -36 8 -76 11 -90 2 -13 6 -46 9 -74 4 -27 8
-61 11 -75 2 -14 7 -50 10 -81 3 -31 7 -65 9 -75 6 -35 19 -139 18 -145 0 -3
3 -37 9 -75 11 -79 14 -106 29 -224 17 -137 19 -152 25 -205 4 -27 8 -61 10
-75 2 -14 6 -50 10 -80 4 -30 8 -66 10 -80 2 -14 16 -122 30 -240 14 -118 28
-225 30 -236 2 -12 6 -48 10 -80 4 -33 9 -70 11 -84 2 -14 6 -50 9 -80 3 -30
8 -66 10 -80 3 -14 7 -47 10 -75 3 -27 8 -63 10 -80 2 -16 7 -50 10 -75 3 -25
12 -99 21 -165 20 -154 20 -158 29 -235 4 -36 9 -73 11 -83 2 -10 6 -45 9 -78
4 -33 8 -69 10 -79 2 -10 6 -45 10 -77 3 -32 7 -69 10 -83 2 -14 7 -50 10 -80
4 -30 8 -66 10 -80 2 -14 7 -49 10 -79 4 -30 8 -61 10 -70 1 -9 6 -45 10 -81
3 -36 8 -76 10 -90 1 -14 8 -70 15 -125 19 -160 64 -266 152 -355 19 -19 106
-116 194 -215 87 -99 164 -184 170 -190 6 -5 64 -71 130 -145 65 -74 130 -146
144 -160 14 -14 50 -55 80 -90 30 -35 62 -71 70 -80 8 -9 49 -54 90 -100 41
-46 80 -88 85 -94 6 -6 42 -47 80 -91 39 -44 75 -84 81 -90 5 -5 46 -50 90
-100 43 -49 93 -104 109 -121 17 -18 49 -54 71 -80 23 -27 52 -61 65 -75 13
-14 58 -63 99 -109 41 -46 84 -93 95 -106 37 -41 80 -89 200 -224 66 -74 122
-137 125 -140 13 -13 111 -122 170 -189 36 -41 76 -86 90 -101 39 -43 89 -98
170 -190 41 -47 77 -87 80 -90 3 -3 46 -50 95 -105 49 -55 94 -105 100 -111 5
-6 37 -42 70 -80 50 -57 156 -175 175 -194 3 -3 23 -25 44 -50 43 -49 182
-204 206 -230 8 -9 44 -49 80 -90 36 -41 72 -81 80 -90 8 -9 44 -49 80 -89 36
-41 70 -79 75 -85 6 -6 51 -56 100 -111 49 -55 92 -102 95 -105 3 -3 35 -39
70 -80 36 -41 74 -83 85 -95 11 -11 54 -58 95 -105 41 -47 82 -92 90 -100 8
-8 46 -51 85 -95 38 -44 74 -85 80 -91 5 -6 39 -44 75 -84 36 -40 80 -89 99
-109 18 -20 52 -58 75 -85 22 -27 57 -65 76 -85 19 -20 68 -75 109 -121 41
-47 86 -97 100 -111 14 -15 45 -48 67 -75 23 -27 52 -60 65 -75 13 -14 56 -61
94 -105 39 -43 73 -81 76 -84 4 -3 27 -29 52 -58 39 -46 46 -62 53 -115 4 -34
8 -64 9 -67 3 -13 18 -119 21 -150 2 -19 6 -46 9 -60 8 -44 16 -94 20 -135 2
-22 6 -49 8 -60 3 -11 8 -42 11 -70 4 -27 8 -61 11 -75 2 -14 7 -47 10 -75 3
-27 7 -57 9 -65 3 -8 7 -37 11 -65 3 -27 10 -77 15 -110 5 -33 11 -78 14 -100
4 -22 8 -51 11 -65 2 -14 7 -47 10 -75 6 -53 14 -104 20 -145 3 -14 10 -61 15
-105 6 -44 13 -96 16 -115 3 -19 7 -46 9 -60 3 -14 7 -47 10 -75 4 -27 8 -57
10 -65 2 -8 7 -35 10 -60 7 -54 16 -117 21 -145 2 -11 6 -42 9 -70 4 -27 8
-62 11 -77 2 -16 6 -40 8 -55 3 -16 7 -47 11 -71 4 -23 8 -52 10 -65 7 -57 17
-132 20 -146 2 -9 7 -44 11 -76 4 -33 8 -62 9 -65 1 -3 5 -34 10 -70 5 -36 9
-67 10 -70 1 -3 5 -32 9 -65 5 -33 10 -67 11 -76 2 -9 6 -40 10 -69 4 -29 8
-62 11 -73 2 -10 6 -45 10 -76 3 -31 8 -58 9 -61 2 -3 6 -29 10 -59 4 -30 8
-62 10 -71 2 -9 6 -41 10 -71 3 -30 8 -65 10 -79 8 -44 14 -82 35 -235 11 -82
22 -159 24 -171 2 -12 7 -45 11 -74 4 -29 8 -60 10 -69 5 -27 14 -93 20 -141
3 -25 8 -56 10 -70 4 -24 13 -86 20 -140 2 -14 11 -74 20 -135 9 -60 18 -128
21 -150 3 -22 7 -50 10 -62 2 -13 3 -23 1 -23 -5 0 -375 119 -397 127 -8 3
-20 7 -26 8 -6 2 -81 25 -165 53 -85 28 -210 68 -279 90 -69 22 -240 77 -380
122 -140 45 -298 95 -350 112 -52 17 -178 57 -280 90 -341 110 -484 156 -725
233 -132 42 -283 90 -335 108 -52 17 -104 32 -114 34 -11 2 -24 7 -30 12 -6 5
-22 11 -36 13 -14 3 -81 24 -150 46 -265 85 -704 227 -910 292 -568 181 -842
270 -858 279 -9 5 -37 58 -60 118 -24 59 -50 122 -57 138 -7 17 -43 104 -80
195 -63 154 -76 186 -111 267 -8 17 -14 34 -14 38 0 4 -6 21 -14 38 -35 81
-48 111 -99 237 -30 74 -173 423 -317 775 -269 656 -278 679 -407 995 -41 102
-86 209 -99 238 -13 29 -24 55 -24 57 0 3 -52 132 -116 288 -194 473 -287 701
-393 962 -56 138 -108 264 -116 280 -7 17 -42 102 -78 190 -57 140 -92 227
-203 500 -14 33 -29 69 -34 80 -5 11 -35 83 -66 160 -30 77 -75 187 -99 245
-60 145 -284 690 -390 950 -79 196 -100 245 -126 305 -4 11 -29 72 -54 135
-25 63 -53 129 -60 147 -8 17 -15 34 -15 37 0 3 -9 25 -19 49 -11 23 -61 143
-111 267 -50 124 -97 239 -105 257 -8 17 -15 34 -15 38 0 3 -8 25 -19 48 -10
23 -65 155 -121 292 -56 138 -126 309 -156 380 -29 72 -130 319 -224 550 -94
231 -177 434 -184 450 -23 50 -398 967 -416 1015 -9 25 -25 63 -34 85 -29 64
-28 63 -182 440 -80 198 -189 462 -240 588 -52 125 -94 233 -94 240 0 7 30
105 66 218 36 112 108 335 159 494 51 160 130 405 175 545 45 140 90 280 100
310 11 30 39 118 64 195 50 158 370 1152 606 1885 51 157 109 339 130 405 21
66 45 140 53 165 8 25 50 153 92 285 71 222 140 436 250 775 24 74 85 263 135
420 50 157 113 353 140 435 108 334 152 472 235 730 48 149 93 288 100 310 8
22 34 103 59 180 24 77 83 259 130 405 47 146 97 304 112 352 15 48 29 86 30
85 2 -1 5 -16 8 -32z m12187 -4080 c30 -25 61 -51 69 -59 8 -7 132 -111 275
-231 143 -119 271 -227 285 -239 14 -11 82 -68 150 -126 69 -57 130 -109 136
-115 7 -5 20 -17 30 -25 11 -9 73 -60 138 -115 66 -55 152 -127 191 -160 40
-33 155 -130 256 -215 101 -85 272 -228 379 -318 107 -91 206 -174 220 -186
14 -11 50 -41 80 -66 30 -25 57 -47 60 -50 3 -4 131 -111 285 -240 154 -128
283 -243 287 -254 6 -18 52 -292 72 -429 3 -21 21 -131 40 -245 19 -114 37
-227 41 -252 3 -25 8 -52 10 -60 2 -8 6 -33 10 -55 17 -121 37 -246 45 -290 6
-27 17 -93 25 -145 8 -52 17 -106 20 -120 3 -14 7 -43 10 -65 3 -22 7 -51 10
-65 2 -13 7 -42 10 -65 4 -22 24 -146 45 -275 22 -129 48 -293 60 -365 11 -71
22 -141 24 -155 3 -14 14 -86 26 -160 12 -74 30 -185 41 -246 10 -61 21 -127
24 -147 9 -68 15 -102 20 -127 2 -13 7 -42 10 -65 3 -22 13 -80 21 -130 8 -49
17 -103 20 -120 2 -16 9 -55 14 -85 5 -30 12 -68 14 -85 3 -16 12 -75 21 -130
9 -55 18 -111 20 -125 5 -36 35 -220 40 -250 3 -14 21 -124 40 -245 20 -121
38 -233 41 -250 3 -16 7 -41 9 -55 2 -14 7 -47 10 -74 4 -28 8 -52 10 -56 2
-3 6 -26 10 -50 3 -25 10 -70 15 -100 5 -30 12 -73 15 -95 3 -22 8 -49 10 -61
3 -12 7 -39 10 -60 3 -21 10 -64 15 -94 18 -104 19 -115 25 -155 6 -37 20
-124 31 -185 2 -14 13 -83 25 -155 11 -71 23 -143 26 -160 3 -16 6 -39 8 -50
1 -11 5 -36 8 -55 10 -53 16 -85 32 -195 9 -55 18 -111 20 -125 2 -14 6 -38 9
-55 3 -16 15 -88 27 -160 12 -71 23 -141 24 -155 3 -26 14 -87 21 -124 2 -11
9 -50 14 -86 12 -79 14 -90 50 -310 16 -96 31 -193 34 -215 7 -40 21 -133 31
-190 12 -73 15 -91 19 -110 2 -11 7 -40 10 -65 3 -25 8 -56 11 -70 9 -55 46
-277 51 -310 3 -19 7 -46 9 -60 3 -14 7 -38 9 -55 3 -16 17 -102 31 -190 15
-88 28 -171 30 -185 2 -14 11 -68 20 -120 9 -52 18 -108 21 -125 2 -16 6 -41
9 -55 2 -14 7 -43 10 -65 3 -23 8 -52 10 -65 3 -14 8 -47 11 -75 4 -27 8 -53
10 -56 2 -4 6 -24 9 -45 3 -22 14 -93 24 -159 13 -73 16 -122 10 -125 -5 -4
-100 -17 -212 -29 -111 -13 -209 -24 -217 -26 -8 -1 -46 -6 -85 -10 -38 -4
-77 -8 -85 -10 -8 -1 -46 -6 -85 -9 -38 -4 -83 -9 -100 -11 -58 -9 -100 -14
-155 -20 -30 -3 -89 -10 -130 -15 -41 -5 -100 -12 -130 -15 -30 -3 -107 -12
-170 -20 -63 -8 -140 -17 -170 -20 -30 -3 -66 -8 -80 -10 -14 -2 -54 -7 -90
-10 -36 -4 -72 -8 -80 -10 -8 -2 -49 -7 -90 -10 -41 -4 -82 -8 -90 -10 -8 -2
-44 -6 -80 -10 -36 -3 -76 -8 -90 -10 -14 -2 -47 -6 -75 -9 -27 -4 -223 -26
-435 -51 -212 -25 -407 -48 -435 -51 -27 -3 -99 -11 -160 -19 -60 -8 -139 -17
-175 -21 -36 -3 -72 -8 -80 -9 -13 -2 -69 -9 -185 -21 -22 -2 -56 -6 -75 -9
-68 -9 -106 -14 -170 -20 l-65 -7 2 1224 c1 672 2 1228 2 1234 1 8 199 11 714
12 616 0 721 2 780 16 125 29 251 105 331 199 65 77 98 137 161 292 31 77 63
154 70 170 8 17 46 109 85 205 188 457 262 637 274 665 55 123 231 560 242
600 17 60 18 175 3 230 -45 165 -173 292 -327 324 -71 15 -5584 16 -5663 1
-209 -39 -359 -243 -345 -470 3 -36 13 -90 24 -120 66 -184 734 -1775 765
-1821 102 -155 279 -268 445 -286 31 -3 366 -6 746 -7 l691 -1 1 -1216 c0
-669 4 -1225 8 -1234 7 -20 -12 -20 -254 9 -69 8 -143 17 -165 20 -22 2 -78 9
-125 15 -47 5 -112 13 -145 16 -33 3 -71 8 -85 10 -14 3 -52 7 -85 10 -33 3
-71 7 -85 10 -14 2 -50 7 -80 10 -30 4 -66 8 -80 10 -14 2 -54 6 -90 10 -36 3
-72 8 -80 10 -8 2 -49 7 -90 10 -41 4 -83 9 -93 11 -10 2 -48 6 -85 10 -37 3
-69 7 -72 9 -3 2 -43 6 -90 10 -47 4 -92 8 -100 10 -39 7 -101 15 -160 20 -36
4 -77 8 -91 11 -42 6 -90 12 -164 19 -38 3 -77 8 -85 10 -8 2 -46 7 -85 11
-38 3 -77 8 -85 9 -8 1 -44 6 -80 9 -77 8 -96 11 -260 30 -69 9 -147 18 -175
21 -27 3 -84 9 -125 15 -41 5 -156 19 -255 30 -99 11 -196 22 -215 25 -19 2
-96 11 -170 20 -74 9 -146 18 -160 20 -14 2 -33 4 -44 4 -16 1 -18 7 -12 49 3
26 8 56 10 67 2 11 9 54 16 95 6 41 14 86 16 100 2 14 11 66 19 115 23 148 25
162 60 375 19 113 39 237 45 275 6 39 13 81 15 95 2 14 7 45 10 70 4 24 8 47
10 50 1 3 6 28 9 55 4 28 11 75 16 105 5 30 12 70 15 88 3 17 7 47 10 65 3 17
8 43 10 57 2 14 16 97 30 185 24 147 60 368 71 440 3 17 7 42 9 58 3 15 7 39
9 55 35 212 58 354 63 382 3 19 7 42 8 50 2 17 25 160 30 193 2 12 17 103 34
202 17 99 33 203 37 230 3 28 7 52 9 55 2 3 6 29 10 59 4 30 9 63 11 75 6 29
12 64 19 111 3 22 10 65 15 95 5 30 12 73 15 95 3 22 8 51 10 65 3 14 8 42 11
64 3 21 8 48 10 60 2 11 7 41 10 66 3 25 7 52 9 60 3 8 7 33 10 55 6 41 9 56
19 115 9 52 15 88 26 160 23 139 61 376 65 400 2 14 7 43 10 65 3 22 10 63 15
90 5 28 12 70 15 95 3 25 7 52 10 60 2 8 7 33 10 55 3 22 8 56 11 75 3 19 14
85 24 145 11 61 22 135 26 165 3 30 8 58 10 61 2 4 6 28 9 55 3 27 8 56 10 64
3 8 7 33 10 55 3 22 19 119 35 215 16 96 32 195 35 220 3 25 8 52 10 60 2 8 7
35 10 60 8 57 14 98 20 130 3 14 7 41 10 60 3 19 10 60 15 90 5 30 12 69 14
85 3 17 12 71 20 120 16 94 25 153 31 195 2 14 6 39 9 55 3 17 10 62 16 100
17 106 20 129 25 145 2 8 7 40 10 70 3 30 8 62 10 70 2 8 7 31 10 50 3 19 10
60 15 90 5 30 12 75 15 100 4 24 8 47 10 50 1 3 6 30 9 61 4 31 9 67 11 80 9
44 14 73 21 124 3 28 8 52 9 55 2 3 6 26 10 50 8 60 11 79 29 185 8 50 18 108
21 130 4 22 8 52 11 67 2 16 6 40 8 55 6 39 26 163 31 193 2 14 20 124 40 245
20 121 38 231 41 245 2 14 6 41 9 60 3 19 7 46 10 60 3 14 7 43 10 65 4 22 8
49 10 60 2 11 4 25 4 32 1 6 94 89 209 184 114 96 218 183 232 195 14 12 144
122 290 244 146 123 285 240 310 261 25 20 81 68 125 104 44 37 91 77 105 89
14 11 50 42 80 67 30 25 156 131 280 235 272 229 236 198 405 339 77 65 163
136 190 160 50 42 224 188 306 257 24 20 118 99 209 176 91 78 170 141 176
141 5 1 35 -19 65 -44z m4250 -13687 c-11 -73 -23 -153 -26 -178 -8 -62 -26
-192 -30 -211 -2 -9 -6 -40 -10 -69 -4 -29 -8 -60 -10 -69 -1 -9 -6 -38 -9
-66 -4 -27 -8 -61 -11 -75 -4 -26 -9 -61 -21 -145 -3 -27 -7 -57 -9 -65 -3
-17 -12 -78 -20 -135 -3 -22 -10 -67 -15 -100 -9 -62 -16 -112 -25 -180 -2
-22 -6 -49 -9 -60 -2 -11 -7 -45 -11 -75 -4 -30 -9 -62 -10 -71 -2 -9 -6 -40
-10 -70 -3 -30 -10 -79 -15 -109 -14 -88 -21 -132 -26 -180 -2 -25 -8 -70 -14
-100 -5 -30 -12 -77 -16 -105 -3 -27 -7 -57 -9 -65 -5 -29 -15 -99 -31 -215
-3 -27 -8 -59 -10 -70 -3 -11 -7 -40 -10 -65 -3 -25 -7 -56 -9 -70 -11 -79
-17 -118 -20 -140 -8 -51 -34 -227 -40 -270 -3 -25 -10 -72 -15 -105 -5 -33
-12 -80 -15 -105 -6 -50 -16 -116 -20 -141 -2 -9 -6 -40 -10 -70 -3 -30 -8
-61 -10 -69 -2 -8 -6 -37 -10 -65 -3 -27 -7 -61 -10 -75 -2 -14 -6 -41 -9 -60
-3 -19 -17 -116 -31 -215 -15 -99 -28 -207 -30 -239 -3 -70 16 -168 43 -225
l20 -41 -21 -5 c-37 -9 -481 -107 -497 -110 -8 -2 -33 -8 -55 -13 -22 -6 -51
-13 -65 -16 -14 -2 -68 -14 -120 -26 -52 -12 -122 -28 -155 -35 -33 -8 -112
-26 -175 -40 -63 -15 -126 -29 -140 -31 -14 -3 -104 -23 -200 -45 -96 -22
-247 -56 -335 -75 -195 -44 -373 -84 -400 -90 -11 -3 -29 -7 -40 -9 -11 -3
-110 -25 -220 -50 -291 -66 -516 -116 -545 -121 -14 -3 -38 -9 -55 -14 -16 -5
-46 -12 -65 -15 -19 -3 -43 -8 -52 -11 -9 -3 -25 -7 -35 -9 -10 -2 -130 -29
-268 -60 -137 -31 -261 -59 -275 -61 -14 -2 -39 -8 -55 -12 -32 -9 -43 -7
-295 52 -8 2 -33 7 -55 11 -22 5 -44 10 -50 11 -5 2 -23 6 -38 9 -16 3 -117
26 -225 51 -108 25 -208 48 -222 50 -14 3 -45 10 -70 15 -25 6 -54 12 -64 15
-27 5 -643 144 -751 169 -33 8 -71 16 -85 19 -14 2 -54 11 -91 20 -36 9 -76
18 -90 20 -13 2 -24 5 -24 6 0 1 -7 3 -15 5 -8 1 -49 10 -90 19 -41 9 -84 18
-95 21 -11 2 -121 27 -245 55 -124 28 -234 53 -245 56 -11 2 -101 22 -200 45
-99 22 -191 43 -205 45 -14 3 -41 9 -60 14 -19 5 -49 12 -67 15 -17 3 -59 12
-92 21 -34 8 -71 17 -83 19 -13 3 -65 14 -116 26 -52 11 -99 22 -105 23 -7 1
-47 11 -90 20 -65 15 -77 21 -71 35 58 141 64 252 24 466 -5 28 -12 75 -15
105 -3 30 -8 62 -10 70 -2 8 -7 40 -10 70 -4 30 -8 57 -10 60 -1 3 -6 36 -10
75 -4 38 -8 72 -10 75 -3 5 -8 40 -20 145 -4 28 -8 57 -10 65 -2 8 -7 38 -10
65 -4 28 -13 91 -20 140 -17 109 -20 128 -40 277 -9 65 -18 125 -19 135 -2 10
-7 41 -10 68 -8 56 -15 108 -21 145 -4 22 -13 88 -30 205 -3 22 -10 69 -15
105 -5 36 -12 83 -15 105 -13 94 -46 323 -50 355 -3 20 -7 45 -9 55 -2 11 -7
45 -11 75 -4 30 -9 62 -10 71 -2 9 -6 40 -10 70 -3 30 -8 65 -10 79 -7 36 -13
78 -20 130 -3 25 -8 56 -10 70 -2 14 -7 45 -10 70 -3 25 -8 56 -10 70 -2 14
-7 45 -10 70 -3 25 -8 56 -10 70 -2 14 -7 45 -10 70 -3 25 -8 52 -10 60 -2 8
-7 40 -10 70 -3 30 -10 80 -15 110 -5 30 -12 75 -15 100 -5 41 -13 102 -20
140 -1 8 -6 40 -10 70 -4 30 -9 64 -11 75 -2 11 -6 39 -9 62 -7 61 -15 114
-21 146 -3 15 -1 27 4 27 6 0 50 -18 99 -41 48 -22 108 -50 133 -61 309 -140
454 -206 663 -302 43 -20 80 -36 82 -36 2 0 71 -31 152 -69 81 -38 213 -98
293 -134 80 -36 177 -79 215 -97 39 -18 169 -77 290 -132 121 -55 249 -114
285 -130 36 -17 103 -47 150 -68 47 -21 117 -52 155 -70 39 -18 223 -102 410
-187 187 -85 363 -165 390 -178 279 -129 1049 -475 1060 -475 7 0 55 20 107
44 51 24 116 53 143 66 95 43 441 202 565 260 69 32 150 69 180 83 90 41 429
197 510 234 41 20 102 48 135 63 33 15 175 80 315 145 140 65 273 125 295 135
22 10 76 35 120 55 80 38 292 135 395 182 96 44 182 84 288 134 57 27 105 49
107 49 1 0 49 22 106 49 57 26 210 97 339 156 129 59 271 124 315 145 44 20
139 64 210 96 72 32 144 66 160 76 17 10 31 14 33 9 2 -5 -6 -69 -17 -143z"/>
</g>
</svg>
